<svg width="24" height="24" viewBox="0 0 24 24" fill="none" xmlns="http://www.w3.org/2000/svg">
<mask id="mask0_23773_625" style="mask-type:alpha" maskUnits="userSpaceOnUse" x="0" y="0" width="24" height="24">
<rect x="24" width="24" height="24" transform="rotate(90 24 0)" fill="#D9D9D9"/>
</mask>
<g mask="url(#mask0_23773_625)">
<path d="M12 14.4751L19.35 7.12511C19.6 6.87511 19.8958 6.75428 20.2375 6.76261C20.5792 6.77094 20.875 6.90011 21.125 7.15011C21.375 7.40011 21.5 7.69594 21.5 8.03761C21.5 8.37928 21.375 8.67511 21.125 8.92511L13.425 16.6001C13.225 16.8001 13 16.9501 12.75 17.0501C12.5 17.1501 12.25 17.2001 12 17.2001C11.75 17.2001 11.5 17.1501 11.25 17.0501C11 16.9501 10.775 16.8001 10.575 16.6001L2.875 8.90011C2.625 8.65011 2.50417 8.35844 2.5125 8.02511C2.52083 7.69178 2.65 7.40011 2.9 7.15011C3.15 6.90011 3.44583 6.77511 3.7875 6.77511C4.12917 6.77511 4.425 6.90011 4.675 7.15011L12 14.4751Z" fill="#54370D"/>
</g>
</svg>
